<?xml version="1.0" encoding="UTF-8" standalone="no"?>
<!DOCTYPE svg PUBLIC "-//W3C//DTD SVG 1.1//EN"
 "http://www.w3.org/Graphics/SVG/1.1/DTD/svg11.dtd">
<!-- Generated by graphviz version 2.40.1 (20161225.0304)
 -->
<!-- Title: G Pages: 1 -->
<svg width="460pt" height="2511pt"
 viewBox="0.00 0.00 459.80 2511.00" xmlns="http://www.w3.org/2000/svg" xmlns:xlink="http://www.w3.org/1999/xlink">
<g id="graph0" class="graph" transform="scale(1 1) rotate(0) translate(4 2507)">
<title>G</title>
<polygon fill="#ffffff" stroke="transparent" points="-4,4 -4,-2507 455.8027,-2507 455.8027,4 -4,4"/>
<g id="clust1" class="cluster">
<title>cluster_Global</title>
<path fill="none" stroke="#c0c0c0" d="M20,-44C20,-44 431.8027,-44 431.8027,-44 437.8027,-44 443.8027,-50 443.8027,-56 443.8027,-56 443.8027,-2483 443.8027,-2483 443.8027,-2489 437.8027,-2495 431.8027,-2495 431.8027,-2495 20,-2495 20,-2495 14,-2495 8,-2489 8,-2483 8,-2483 8,-56 8,-56 8,-50 14,-44 20,-44"/>
<text text-anchor="middle" x="225.9014" y="-2482.2" font-family="Times,serif" font-size="11.00" fill="#c0c0c0">Global</text>
</g>
<g id="clust2" class="cluster">
<title>cluster_\WDGWV</title>
<path fill="none" stroke="#c0c0c0" d="M28,-366C28,-366 423.8027,-366 423.8027,-366 429.8027,-366 435.8027,-372 435.8027,-378 435.8027,-378 435.8027,-2307 435.8027,-2307 435.8027,-2313 429.8027,-2319 423.8027,-2319 423.8027,-2319 28,-2319 28,-2319 22,-2319 16,-2313 16,-2307 16,-2307 16,-378 16,-378 16,-372 22,-366 28,-366"/>
<text text-anchor="middle" x="225.9014" y="-2306.2" font-family="Times,serif" font-size="11.00" fill="#c0c0c0">WDGWV</text>
</g>
<g id="clust3" class="cluster">
<title>cluster_\WDGWV\CMS</title>
<path fill="none" stroke="#c0c0c0" d="M36,-561C36,-561 415.8027,-561 415.8027,-561 421.8027,-561 427.8027,-567 427.8027,-573 427.8027,-573 427.8027,-2280 427.8027,-2280 427.8027,-2286 421.8027,-2292 415.8027,-2292 415.8027,-2292 36,-2292 36,-2292 30,-2292 24,-2286 24,-2280 24,-2280 24,-573 24,-573 24,-567 30,-561 36,-561"/>
<text text-anchor="middle" x="225.9014" y="-2279.2" font-family="Times,serif" font-size="11.00" fill="#c0c0c0">CMS</text>
</g>
<g id="clust4" class="cluster">
<title>cluster_\WDGWV\CMS\Extension</title>
<path fill="none" stroke="#c0c0c0" d="M221.5737,-1600C221.5737,-1600 407.8027,-1600 407.8027,-1600 413.8027,-1600 419.8027,-1606 419.8027,-1612 419.8027,-1612 419.8027,-2253 419.8027,-2253 419.8027,-2259 413.8027,-2265 407.8027,-2265 407.8027,-2265 221.5737,-2265 221.5737,-2265 215.5737,-2265 209.5737,-2259 209.5737,-2253 209.5737,-2253 209.5737,-1612 209.5737,-1612 209.5737,-1606 215.5737,-1600 221.5737,-1600"/>
<text text-anchor="middle" x="314.6882" y="-2252.2" font-family="Times,serif" font-size="11.00" fill="#c0c0c0">Extension</text>
</g>
<g id="clust5" class="cluster">
<title>cluster_\WDGWV\CMS\Controllers</title>
<path fill="none" stroke="#c0c0c0" d="M51.907,-1126C51.907,-1126 361.5952,-1126 361.5952,-1126 367.5952,-1126 373.5952,-1132 373.5952,-1138 373.5952,-1138 373.5952,-1580 373.5952,-1580 373.5952,-1586 367.5952,-1592 361.5952,-1592 361.5952,-1592 51.907,-1592 51.907,-1592 45.907,-1592 39.907,-1586 39.907,-1580 39.907,-1580 39.907,-1138 39.907,-1138 39.907,-1132 45.907,-1126 51.907,-1126"/>
<text text-anchor="middle" x="206.7511" y="-1579.2" font-family="Times,serif" font-size="11.00" fill="#c0c0c0">Controllers</text>
</g>
<g id="clust6" class="cluster">
<title>cluster_\WDGWV\CMS\Controllers\Databases</title>
<path fill="none" stroke="#c0c0c0" d="M59.907,-1342C59.907,-1342 351.6936,-1342 351.6936,-1342 357.6936,-1342 363.6936,-1348 363.6936,-1354 363.6936,-1354 363.6936,-1509 363.6936,-1509 363.6936,-1515 357.6936,-1521 351.6936,-1521 351.6936,-1521 59.907,-1521 59.907,-1521 53.907,-1521 47.907,-1515 47.907,-1509 47.907,-1509 47.907,-1354 47.907,-1354 47.907,-1348 53.907,-1342 59.907,-1342"/>
<text text-anchor="middle" x="205.8003" y="-1508.2" font-family="Times,serif" font-size="11.00" fill="#c0c0c0">Databases</text>
</g>
<g id="clust7" class="cluster">
<title>cluster_\WDGWV\CMS\Emulation</title>
<path fill="none" stroke="#c0c0c0" d="M280.9834,-885C280.9834,-885 348.393,-885 348.393,-885 354.393,-885 360.393,-891 360.393,-897 360.393,-897 360.393,-1106 360.393,-1106 360.393,-1112 354.393,-1118 348.393,-1118 348.393,-1118 280.9834,-1118 280.9834,-1118 274.9834,-1118 268.9834,-1112 268.9834,-1106 268.9834,-1106 268.9834,-897 268.9834,-897 268.9834,-891 274.9834,-885 280.9834,-885"/>
<text text-anchor="middle" x="314.6882" y="-1105.2" font-family="Times,serif" font-size="11.00" fill="#c0c0c0">Emulation</text>
</g>
<g id="clust8" class="cluster">
<title>cluster_\WDGWV\General</title>
<path fill="none" stroke="#c0c0c0" d="M59.907,-374C59.907,-374 364.8957,-374 364.8957,-374 370.8957,-374 376.8957,-380 376.8957,-386 376.8957,-386 376.8957,-541 376.8957,-541 376.8957,-547 370.8957,-553 364.8957,-553 364.8957,-553 59.907,-553 59.907,-553 53.907,-553 47.907,-547 47.907,-541 47.907,-541 47.907,-386 47.907,-386 47.907,-380 53.907,-374 59.907,-374"/>
<text text-anchor="middle" x="212.4014" y="-540.2" font-family="Times,serif" font-size="11.00" fill="#c0c0c0">General</text>
</g>
<g id="clust9" class="cluster">
<title>cluster_Global\WDGWV</title>
<path fill="none" stroke="#c0c0c0" d="M43.907,-2327C43.907,-2327 121.907,-2327 121.907,-2327 127.907,-2327 133.907,-2333 133.907,-2339 133.907,-2339 133.907,-2456 133.907,-2456 133.907,-2462 127.907,-2468 121.907,-2468 121.907,-2468 43.907,-2468 43.907,-2468 37.907,-2468 31.907,-2462 31.907,-2456 31.907,-2456 31.907,-2339 31.907,-2339 31.907,-2333 37.907,-2327 43.907,-2327"/>
<text text-anchor="middle" x="82.907" y="-2455.2" font-family="Times,serif" font-size="11.00" fill="#c0c0c0">WDGWV</text>
</g>
<g id="clust10" class="cluster">
<title>cluster_Global\WDGWV\CMS</title>
<path fill="none" stroke="#c0c0c0" d="M51.907,-2335C51.907,-2335 113.907,-2335 113.907,-2335 119.907,-2335 125.907,-2341 125.907,-2347 125.907,-2347 125.907,-2429 125.907,-2429 125.907,-2435 119.907,-2441 113.907,-2441 113.907,-2441 51.907,-2441 51.907,-2441 45.907,-2441 39.907,-2435 39.907,-2429 39.907,-2429 39.907,-2347 39.907,-2347 39.907,-2341 45.907,-2335 51.907,-2335"/>
<text text-anchor="middle" x="82.907" y="-2428.2" font-family="Times,serif" font-size="11.00" fill="#c0c0c0">CMS</text>
</g>
<g id="clust11" class="cluster">
<title>cluster_Global\WDGWV\CMS\Controllers</title>
<path fill="none" stroke="#c0c0c0" d="M59.907,-2343C59.907,-2343 105.907,-2343 105.907,-2343 111.907,-2343 117.907,-2349 117.907,-2355 117.907,-2355 117.907,-2402 117.907,-2402 117.907,-2408 111.907,-2414 105.907,-2414 105.907,-2414 59.907,-2414 59.907,-2414 53.907,-2414 47.907,-2408 47.907,-2402 47.907,-2402 47.907,-2355 47.907,-2355 47.907,-2349 53.907,-2343 59.907,-2343"/>
<text text-anchor="middle" x="82.907" y="-2401.2" font-family="Times,serif" font-size="11.00" fill="#c0c0c0">Controllers</text>
</g>
<g id="clust12" class="cluster">
<title>cluster_Global\PHPUnit</title>
<path fill="none" stroke="#c0c0c0" d="M37.0017,-252C37.0017,-252 128.8123,-252 128.8123,-252 134.8123,-252 140.8123,-258 140.8123,-264 140.8123,-264 140.8123,-346 140.8123,-346 140.8123,-352 134.8123,-358 128.8123,-358 128.8123,-358 37.0017,-358 37.0017,-358 31.0017,-358 25.0017,-352 25.0017,-346 25.0017,-346 25.0017,-264 25.0017,-264 25.0017,-258 31.0017,-252 37.0017,-252"/>
<text text-anchor="middle" x="82.907" y="-345.2" font-family="Times,serif" font-size="11.00" fill="#c0c0c0">PHPUnit</text>
</g>
<g id="clust13" class="cluster">
<title>cluster_Global\PHPUnit\Framework</title>
<path fill="none" stroke="#c0c0c0" d="M45.0017,-260C45.0017,-260 120.8123,-260 120.8123,-260 126.8123,-260 132.8123,-266 132.8123,-272 132.8123,-272 132.8123,-319 132.8123,-319 132.8123,-325 126.8123,-331 120.8123,-331 120.8123,-331 45.0017,-331 45.0017,-331 39.0017,-331 33.0017,-325 33.0017,-319 33.0017,-319 33.0017,-272 33.0017,-272 33.0017,-266 39.0017,-260 45.0017,-260"/>
<text text-anchor="middle" x="82.907" y="-318.2" font-family="Times,serif" font-size="11.00" fill="#c0c0c0">Framework</text>
</g>
<!-- \\WDGWV\\CMS\\Extension\\PageMananagamentSystem -->
<g id="node1" class="node">
<title>\\WDGWV\\CMS\\Extension\\PageMananagamentSystem</title>
<polygon fill="none" stroke="#000000" points="395.412,-2130 233.9644,-2130 233.9644,-2094 395.412,-2094 395.412,-2130"/>
<text text-anchor="middle" x="314.6882" y="-2108.7" font-family="Courier,monospace" font-size="11.00" fill="#000000">PageMananagamentSystem</text>
</g>
<!-- \\WDGWV\\CMS\\ExtensionBase -->
<g id="node33" class="node">
<title>\\WDGWV\\CMS\\ExtensionBase</title>
<polygon fill="none" stroke="#000000" points="133.7211,-1968 32.0928,-1968 32.0928,-1932 133.7211,-1932 133.7211,-1968"/>
<text text-anchor="middle" x="82.907" y="-1946.7" font-family="Courier,monospace" font-size="11.00" fill="#000000">ExtensionBase</text>
</g>
<!-- \\WDGWV\\CMS\\Extension\\PageMananagamentSystem&#45;&gt;\\WDGWV\\CMS\\ExtensionBase -->
<g id="edge1" class="edge">
<title>\\WDGWV\\CMS\\Extension\\PageMananagamentSystem&#45;&gt;\\WDGWV\\CMS\\ExtensionBase</title>
<path fill="none" stroke="#000000" d="M233.867,-2096.3132C225.3827,-2093.1936 217.1137,-2089.4618 209.5737,-2085 163.0017,-2057.441 122.8962,-2007.7326 100.8982,-1976.9337"/>
<polygon fill="none" stroke="#000000" points="103.5282,-1974.5877 94.9243,-1968.4052 97.7948,-1978.6038 103.5282,-1974.5877"/>
</g>
<!-- \\WDGWV\\CMS\\Extension\\ThemeMananagamentSystem -->
<g id="node2" class="node">
<title>\\WDGWV\\CMS\\Extension\\ThemeMananagamentSystem</title>
<polygon fill="none" stroke="#000000" points="398.513,-2076 230.8634,-2076 230.8634,-2040 398.513,-2040 398.513,-2076"/>
<text text-anchor="middle" x="314.6882" y="-2054.7" font-family="Courier,monospace" font-size="11.00" fill="#000000">ThemeMananagamentSystem</text>
</g>
<!-- \\WDGWV\\CMS\\Extension\\ThemeMananagamentSystem&#45;&gt;\\WDGWV\\CMS\\ExtensionBase -->
<g id="edge5" class="edge">
<title>\\WDGWV\\CMS\\Extension\\ThemeMananagamentSystem&#45;&gt;\\WDGWV\\CMS\\ExtensionBase</title>
<path fill="none" stroke="#000000" d="M233.4631,-2039.9202C225.2706,-2037.2731 217.1762,-2034.306 209.5737,-2031 175.0992,-2016.0088 139.3248,-1992.2491 114.6239,-1974.3315"/>
<polygon fill="none" stroke="#000000" points="116.4989,-1971.3658 106.369,-1968.2613 112.352,-1977.0052 116.4989,-1971.3658"/>
</g>
<!-- \\WDGWV\\CMS\\Extension\\BlogMananagamentSystem -->
<g id="node3" class="node">
<title>\\WDGWV\\CMS\\Extension\\BlogMananagamentSystem</title>
<polygon fill="none" stroke="#000000" points="395.412,-2022 233.9644,-2022 233.9644,-1986 395.412,-1986 395.412,-2022"/>
<text text-anchor="middle" x="314.6882" y="-2000.7" font-family="Courier,monospace" font-size="11.00" fill="#000000">BlogMananagamentSystem</text>
</g>
<!-- \\WDGWV\\CMS\\Extension\\BlogMananagamentSystem&#45;&gt;\\WDGWV\\CMS\\ExtensionBase -->
<g id="edge6" class="edge">
<title>\\WDGWV\\CMS\\Extension\\BlogMananagamentSystem&#45;&gt;\\WDGWV\\CMS\\ExtensionBase</title>
<path fill="none" stroke="#000000" d="M237.1862,-1985.9437C206.696,-1978.8402 172.2093,-1970.8055 143.5862,-1964.1369"/>
<polygon fill="none" stroke="#000000" points="144.2559,-1960.6993 133.7225,-1961.8389 142.6675,-1967.5167 144.2559,-1960.6993"/>
</g>
<!-- \\WDGWV\\CMS\\Extension\\WYSIWYG -->
<g id="node4" class="node">
<title>\\WDGWV\\CMS\\Extension\\WYSIWYG</title>
<polygon fill="none" stroke="#000000" points="345.8961,-1968 283.4803,-1968 283.4803,-1932 345.8961,-1932 345.8961,-1968"/>
<text text-anchor="middle" x="314.6882" y="-1946.7" font-family="Courier,monospace" font-size="11.00" fill="#000000">WYSIWYG</text>
</g>
<!-- \\WDGWV\\CMS\\Extension\\WYSIWYG&#45;&gt;\\WDGWV\\CMS\\ExtensionBase -->
<g id="edge7" class="edge">
<title>\\WDGWV\\CMS\\Extension\\WYSIWYG&#45;&gt;\\WDGWV\\CMS\\ExtensionBase</title>
<path fill="none" stroke="#000000" d="M283.4292,-1950C247.8915,-1950 189.0086,-1950 144.22,-1950"/>
<polygon fill="none" stroke="#000000" points="144.0279,-1946.5001 134.0279,-1950 144.0278,-1953.5001 144.0279,-1946.5001"/>
</g>
<!-- \\WDGWV\\CMS\\Extension\\CrossDomain -->
<g id="node5" class="node">
<title>\\WDGWV\\CMS\\Extension\\CrossDomain</title>
<polygon fill="none" stroke="#000000" points="358.8009,-1914 270.5755,-1914 270.5755,-1878 358.8009,-1878 358.8009,-1914"/>
<text text-anchor="middle" x="314.6882" y="-1892.7" font-family="Courier,monospace" font-size="11.00" fill="#000000">CrossDomain</text>
</g>
<!-- \\WDGWV\\CMS\\Extension\\CrossDomain&#45;&gt;\\WDGWV\\CMS\\ExtensionBase -->
<g id="edge8" class="edge">
<title>\\WDGWV\\CMS\\Extension\\CrossDomain&#45;&gt;\\WDGWV\\CMS\\ExtensionBase</title>
<path fill="none" stroke="#000000" d="M270.5464,-1906.2841C234.5842,-1914.6625 183.4255,-1926.5814 143.6072,-1935.8582"/>
<polygon fill="none" stroke="#000000" points="142.6894,-1932.4782 133.7444,-1938.156 144.2777,-1939.2956 142.6894,-1932.4782"/>
</g>
<!-- \\WDGWV\\CMS\\Extension\\ical_cal -->
<g id="node6" class="node">
<title>\\WDGWV\\CMS\\Extension\\ical_cal</title>
<polygon fill="none" stroke="#000000" points="348.9971,-1644 280.3793,-1644 280.3793,-1608 348.9971,-1608 348.9971,-1644"/>
<text text-anchor="middle" x="314.6882" y="-1622.7" font-family="Courier,monospace" font-size="11.00" fill="#000000">ical_cal</text>
</g>
<!-- ExtensionBase -->
<g id="node48" class="node">
<title>ExtensionBase</title>
<ellipse fill="none" stroke="#000000" cx="82.907" cy="-18" rx="62.8339" ry="18"/>
<text text-anchor="middle" x="82.907" y="-13.8" font-family="Times,serif" font-size="14.00" fill="#000000">ExtensionBase</text>
</g>
<!-- \\WDGWV\\CMS\\Extension\\ical_cal&#45;&gt;ExtensionBase -->
<g id="edge11" class="edge">
<title>\\WDGWV\\CMS\\Extension\\ical_cal&#45;&gt;ExtensionBase</title>
<path fill="none" stroke="#000000" d="M280.131,-1626.0054C256.3327,-1623.9901 226.1263,-1617.0246 209.5737,-1596 102.536,-1460.0439 248.5122,-179.0856 145.5737,-40 144.3133,-38.297 142.9109,-36.725 141.3935,-35.2742"/>
<polygon fill="none" stroke="#000000" points="143.0781,-32.1638 132.9721,-28.9826 138.8884,-37.7717 143.0781,-32.1638"/>
</g>
<!-- \\WDGWV\\CMS\\Extension\\UnderscoreJS -->
<g id="node7" class="node">
<title>\\WDGWV\\CMS\\Extension\\UnderscoreJS</title>
<polygon fill="none" stroke="#000000" points="362.4013,-1860 266.9751,-1860 266.9751,-1824 362.4013,-1824 362.4013,-1860"/>
<text text-anchor="middle" x="314.6882" y="-1838.7" font-family="Courier,monospace" font-size="11.00" fill="#000000">UnderscoreJS</text>
</g>
<!-- \\WDGWV\\CMS\\Extension\\UnderscoreJS&#45;&gt;\\WDGWV\\CMS\\ExtensionBase -->
<g id="edge13" class="edge">
<title>\\WDGWV\\CMS\\Extension\\UnderscoreJS&#45;&gt;\\WDGWV\\CMS\\ExtensionBase</title>
<path fill="none" stroke="#000000" d="M267.0537,-1850.8652C248.6593,-1855.151 227.7161,-1861.1108 209.5737,-1869 175.0992,-1883.9912 139.3248,-1907.7509 114.6239,-1925.6685"/>
<polygon fill="none" stroke="#000000" points="112.352,-1922.9948 106.369,-1931.7387 116.4989,-1928.6342 112.352,-1922.9948"/>
</g>
<!-- \\WDGWV\\CMS\\Extension\\ExtensionMananagamentSystem -->
<g id="node8" class="node">
<title>\\WDGWV\\CMS\\Extension\\ExtensionMananagamentSystem</title>
<polygon fill="none" stroke="#000000" points="411.9173,-1806 217.4591,-1806 217.4591,-1770 411.9173,-1770 411.9173,-1806"/>
<text text-anchor="middle" x="314.6882" y="-1784.7" font-family="Courier,monospace" font-size="11.00" fill="#000000">ExtensionMananagamentSystem</text>
</g>
<!-- \\WDGWV\\CMS\\Extension\\ExtensionMananagamentSystem&#45;&gt;\\WDGWV\\CMS\\ExtensionBase -->
<g id="edge14" class="edge">
<title>\\WDGWV\\CMS\\Extension\\ExtensionMananagamentSystem&#45;&gt;\\WDGWV\\CMS\\ExtensionBase</title>
<path fill="none" stroke="#000000" d="M227.8888,-1806.0051C221.5113,-1808.6129 215.3301,-1811.5937 209.5737,-1815 163.0017,-1842.559 122.8962,-1892.2674 100.8982,-1923.0663"/>
<polygon fill="none" stroke="#000000" points="97.7948,-1921.3962 94.9243,-1931.5948 103.5282,-1925.4123 97.7948,-1921.3962"/>
</g>
<!-- \\WDGWV\\CMS\\Extension\\TodoExtension -->
<g id="node9" class="node">
<title>\\WDGWV\\CMS\\Extension\\TodoExtension</title>
<polygon fill="none" stroke="#000000" points="365.5023,-1752 263.8741,-1752 263.8741,-1716 365.5023,-1716 365.5023,-1752"/>
<text text-anchor="middle" x="314.6882" y="-1730.7" font-family="Courier,monospace" font-size="11.00" fill="#000000">TodoExtension</text>
</g>
<!-- \\WDGWV\\CMS\\Extension\\TodoExtension&#45;&gt;\\WDGWV\\CMS\\ExtensionBase -->
<g id="edge16" class="edge">
<title>\\WDGWV\\CMS\\Extension\\TodoExtension&#45;&gt;\\WDGWV\\CMS\\ExtensionBase</title>
<path fill="none" stroke="#000000" d="M263.6361,-1739.4474C245.3294,-1743.2924 225.3377,-1749.8434 209.5737,-1761 150.7457,-1802.634 111.4307,-1880.9273 93.6969,-1922.4756"/>
<polygon fill="none" stroke="#000000" points="90.3599,-1921.385 89.7516,-1931.9623 96.8233,-1924.073 90.3599,-1921.385"/>
</g>
<!-- \\WDGWV\\CMS\\Extension\\TestExtension -->
<g id="node10" class="node">
<title>\\WDGWV\\CMS\\Extension\\TestExtension</title>
<polygon fill="none" stroke="#000000" points="365.5023,-1698 263.8741,-1698 263.8741,-1662 365.5023,-1662 365.5023,-1698"/>
<text text-anchor="middle" x="314.6882" y="-1676.7" font-family="Courier,monospace" font-size="11.00" fill="#000000">TestExtension</text>
</g>
<!-- \\WDGWV\\CMS\\Extension\\TestExtension&#45;&gt;\\WDGWV\\CMS\\ExtensionBase -->
<g id="edge17" class="edge">
<title>\\WDGWV\\CMS\\Extension\\TestExtension&#45;&gt;\\WDGWV\\CMS\\ExtensionBase</title>
<path fill="none" stroke="#000000" d="M263.7554,-1684.3691C245.1482,-1688.0785 224.9224,-1694.8186 209.5737,-1707 138.4274,-1763.4651 102.9495,-1870.863 89.5092,-1921.819"/>
<polygon fill="none" stroke="#000000" points="86.0444,-1921.2429 86.9708,-1931.7971 92.8283,-1922.9687 86.0444,-1921.2429"/>
</g>
<!-- \\WDGWV\\CMS\\Extension\\Update -->
<g id="node11" class="node">
<title>\\WDGWV\\CMS\\Extension\\Update</title>
<polygon fill="none" stroke="#000000" points="342.296,-2238 287.0804,-2238 287.0804,-2202 342.296,-2202 342.296,-2238"/>
<text text-anchor="middle" x="314.6882" y="-2216.7" font-family="Courier,monospace" font-size="11.00" fill="#000000">Update</text>
</g>
<!-- \\WDGWV\\CMS\\Extension\\Update&#45;&gt;\\WDGWV\\CMS\\ExtensionBase -->
<g id="edge25" class="edge">
<title>\\WDGWV\\CMS\\Extension\\Update&#45;&gt;\\WDGWV\\CMS\\ExtensionBase</title>
<path fill="none" stroke="#000000" d="M286.9337,-2218.9829C263.9945,-2216.8193 231.7112,-2210.5694 209.5737,-2193 138.4274,-2136.5349 102.9495,-2029.137 89.5092,-1978.181"/>
<polygon fill="none" stroke="#000000" points="92.8283,-1977.0313 86.9708,-1968.2029 86.0444,-1978.7571 92.8283,-1977.0313"/>
</g>
<!-- \\WDGWV\\CMS\\Extension\\Calendar -->
<g id="node12" class="node">
<title>\\WDGWV\\CMS\\Extension\\Calendar</title>
<polygon fill="none" stroke="#000000" points="348.9971,-2184 280.3793,-2184 280.3793,-2148 348.9971,-2148 348.9971,-2184"/>
<text text-anchor="middle" x="314.6882" y="-2162.7" font-family="Courier,monospace" font-size="11.00" fill="#000000">Calendar</text>
</g>
<!-- \\WDGWV\\CMS\\Extension\\Calendar&#45;&gt;\\WDGWV\\CMS\\ExtensionBase -->
<g id="edge26" class="edge">
<title>\\WDGWV\\CMS\\Extension\\Calendar&#45;&gt;\\WDGWV\\CMS\\ExtensionBase</title>
<path fill="none" stroke="#000000" d="M280.3531,-2163.4544C258.432,-2160.3989 230.336,-2153.694 209.5737,-2139 150.7457,-2097.366 111.4307,-2019.0727 93.6969,-1977.5244"/>
<polygon fill="none" stroke="#000000" points="96.8233,-1975.927 89.7516,-1968.0377 90.3599,-1978.615 96.8233,-1975.927"/>
</g>
<!-- \\WDGWV\\CMS\\Controllers\\Databases\\Controller -->
<g id="node13" class="node">
<title>\\WDGWV\\CMS\\Controllers\\Databases\\Controller</title>
<polygon fill="none" stroke="#000000" points="355.6989,-1494 273.6775,-1494 273.6775,-1458 355.6989,-1458 355.6989,-1494"/>
<text text-anchor="middle" x="314.6882" y="-1472.7" font-family="Courier,monospace" font-size="11.00" fill="#000000">Controller</text>
</g>
<!-- \\WDGWV\\CMS\\Controllers\\Databases\\Base -->
<g id="node14" class="node">
<title>\\WDGWV\\CMS\\Controllers\\Databases\\Base</title>
<polygon fill="none" stroke="#000000" points="109.907,-1440 55.907,-1440 55.907,-1404 109.907,-1404 109.907,-1440"/>
<text text-anchor="middle" x="82.907" y="-1418.7" font-family="Courier,monospace" font-size="11.00" fill="#000000">Base</text>
</g>
<!-- \\WDGWV\\CMS\\Controllers\\Databases\\Controller&#45;&gt;\\WDGWV\\CMS\\Controllers\\Databases\\Base -->
<g id="edge3" class="edge">
<title>\\WDGWV\\CMS\\Controllers\\Databases\\Controller&#45;&gt;\\WDGWV\\CMS\\Controllers\\Databases\\Base</title>
<path fill="none" stroke="#000000" d="M273.5174,-1466.4081C229.8927,-1456.2445 161.643,-1440.3438 119.741,-1430.5815"/>
<polygon fill="none" stroke="#000000" points="120.4756,-1427.159 109.9422,-1428.2986 118.8872,-1433.9764 120.4756,-1427.159"/>
</g>
<!-- \\WDGWV\\CMS\\Controllers\\Databases\\PlainText -->
<g id="node15" class="node">
<title>\\WDGWV\\CMS\\Controllers\\Databases\\PlainText</title>
<polygon fill="none" stroke="#000000" points="352.599,-1440 276.7774,-1440 276.7774,-1404 352.599,-1404 352.599,-1440"/>
<text text-anchor="middle" x="314.6882" y="-1418.7" font-family="Courier,monospace" font-size="11.00" fill="#000000">PlainText</text>
</g>
<!-- \\WDGWV\\CMS\\Controllers\\Databases\\PlainText&#45;&gt;\\WDGWV\\CMS\\Controllers\\Databases\\Base -->
<g id="edge20" class="edge">
<title>\\WDGWV\\CMS\\Controllers\\Databases\\PlainText&#45;&gt;\\WDGWV\\CMS\\Controllers\\Databases\\Base</title>
<path fill="none" stroke="#000000" d="M276.9327,-1422C233.678,-1422 163.2409,-1422 120.1867,-1422"/>
<polygon fill="none" stroke="#000000" points="120.126,-1418.5001 110.126,-1422 120.126,-1425.5001 120.126,-1418.5001"/>
</g>
<!-- \\WDGWV\\CMS\\Controllers\\Databases\\SQLite -->
<g id="node16" class="node">
<title>\\WDGWV\\CMS\\Controllers\\Databases\\SQLite</title>
<polygon fill="none" stroke="#000000" points="342.296,-1386 287.0804,-1386 287.0804,-1350 342.296,-1350 342.296,-1386"/>
<text text-anchor="middle" x="314.6882" y="-1364.7" font-family="Courier,monospace" font-size="11.00" fill="#000000">SQLite</text>
</g>
<!-- \\WDGWV\\CMS\\Controllers\\Databases\\SQLite&#45;&gt;\\WDGWV\\CMS\\Controllers\\Databases\\Base -->
<g id="edge27" class="edge">
<title>\\WDGWV\\CMS\\Controllers\\Databases\\SQLite&#45;&gt;\\WDGWV\\CMS\\Controllers\\Databases\\Base</title>
<path fill="none" stroke="#000000" d="M286.73,-1374.5137C245.0891,-1384.2151 166.7051,-1402.4768 120.2157,-1413.3079"/>
<polygon fill="none" stroke="#000000" points="119.1896,-1409.9531 110.2446,-1415.6309 120.778,-1416.7705 119.1896,-1409.9531"/>
</g>
<!-- \\WDGWV\\CMS\\Controllers\\Page -->
<g id="node17" class="node">
<title>\\WDGWV\\CMS\\Controllers\\Page</title>
<polygon fill="none" stroke="#000000" points="341.6882,-1332 287.6882,-1332 287.6882,-1296 341.6882,-1296 341.6882,-1332"/>
<text text-anchor="middle" x="314.6882" y="-1310.7" font-family="Courier,monospace" font-size="11.00" fill="#000000">Page</text>
</g>
<!-- \\WDGWV\\CMS\\Controllers\\Base -->
<g id="node20" class="node">
<title>\\WDGWV\\CMS\\Controllers\\Base</title>
<polygon fill="none" stroke="#000000" points="109.907,-1278 55.907,-1278 55.907,-1242 109.907,-1242 109.907,-1278"/>
<text text-anchor="middle" x="82.907" y="-1256.7" font-family="Courier,monospace" font-size="11.00" fill="#000000">Base</text>
</g>
<!-- \\WDGWV\\CMS\\Controllers\\Page&#45;&gt;\\WDGWV\\CMS\\Controllers\\Base -->
<g id="edge4" class="edge">
<title>\\WDGWV\\CMS\\Controllers\\Page&#45;&gt;\\WDGWV\\CMS\\Controllers\\Base</title>
<path fill="none" stroke="#000000" d="M287.6463,-1307.6998C246.1488,-1298.0318 166.6673,-1279.5143 119.8784,-1268.6135"/>
<polygon fill="none" stroke="#000000" points="120.6683,-1265.2039 110.1349,-1266.3435 119.0799,-1272.0213 120.6683,-1265.2039"/>
</g>
<!-- \\WDGWV\\CMS\\Controllers\\User -->
<g id="node18" class="node">
<title>\\WDGWV\\CMS\\Controllers\\User</title>
<polygon fill="none" stroke="#000000" points="341.6882,-1278 287.6882,-1278 287.6882,-1242 341.6882,-1242 341.6882,-1278"/>
<text text-anchor="middle" x="314.6882" y="-1256.7" font-family="Courier,monospace" font-size="11.00" fill="#000000">User</text>
</g>
<!-- \\WDGWV\\CMS\\Controllers\\User&#45;&gt;\\WDGWV\\CMS\\Controllers\\Base -->
<g id="edge9" class="edge">
<title>\\WDGWV\\CMS\\Controllers\\User&#45;&gt;\\WDGWV\\CMS\\Controllers\\Base</title>
<path fill="none" stroke="#000000" d="M287.6463,-1260C246.2358,-1260 167.0004,-1260 120.1731,-1260"/>
<polygon fill="none" stroke="#000000" points="120.1349,-1256.5001 110.1349,-1260 120.1349,-1263.5001 120.1349,-1256.5001"/>
</g>
<!-- \\WDGWV\\CMS\\Controllers\\Shop -->
<g id="node19" class="node">
<title>\\WDGWV\\CMS\\Controllers\\Shop</title>
<polygon fill="none" stroke="#000000" points="341.6882,-1224 287.6882,-1224 287.6882,-1188 341.6882,-1188 341.6882,-1224"/>
<text text-anchor="middle" x="314.6882" y="-1202.7" font-family="Courier,monospace" font-size="11.00" fill="#000000">Shop</text>
</g>
<!-- \\WDGWV\\CMS\\Controllers\\Shop&#45;&gt;\\WDGWV\\CMS\\Controllers\\Base -->
<g id="edge10" class="edge">
<title>\\WDGWV\\CMS\\Controllers\\Shop&#45;&gt;\\WDGWV\\CMS\\Controllers\\Base</title>
<path fill="none" stroke="#000000" d="M287.6463,-1212.3002C246.1488,-1221.9682 166.6673,-1240.4857 119.8784,-1251.3865"/>
<polygon fill="none" stroke="#000000" points="119.0799,-1247.9787 110.1349,-1253.6565 120.6683,-1254.7961 119.0799,-1247.9787"/>
</g>
<!-- \\WDGWV\\CMS\\Controllers\\API -->
<g id="node21" class="node">
<title>\\WDGWV\\CMS\\Controllers\\API</title>
<polygon fill="none" stroke="#000000" points="341.6882,-1565 287.6882,-1565 287.6882,-1529 341.6882,-1529 341.6882,-1565"/>
<text text-anchor="middle" x="314.6882" y="-1543.7" font-family="Courier,monospace" font-size="11.00" fill="#000000">API</text>
</g>
<!-- base -->
<g id="node39" class="node">
<title>base</title>
<ellipse fill="none" stroke="#000000" cx="82.907" cy="-2369" rx="27" ry="18"/>
<text text-anchor="middle" x="82.907" y="-2364.8" font-family="Times,serif" font-size="14.00" fill="#c0c0c0">base</text>
</g>
<!-- \\WDGWV\\CMS\\Controllers\\API&#45;&gt;base -->
<g id="edge24" class="edge">
<title>\\WDGWV\\CMS\\Controllers\\API&#45;&gt;base</title>
<path fill="none" stroke="#000000" d="M287.372,-1551.8279C262.7221,-1557.7318 227.6414,-1570.307 209.5737,-1596 119.7208,-1723.7743 206.4423,-2152.1431 145.5737,-2296 137.1165,-2315.9878 121.1,-2334.4919 107.3766,-2347.8691"/>
<polygon fill="none" stroke="#000000" points="104.9435,-2345.3527 100.0511,-2354.7503 109.7361,-2350.4548 104.9435,-2345.3527"/>
</g>
<!-- \\WDGWV\\CMS\\Controllers\\BaseProtected -->
<g id="node22" class="node">
<title>\\WDGWV\\CMS\\Controllers\\BaseProtected</title>
<polygon fill="none" stroke="#000000" points="365.5023,-1170 263.8741,-1170 263.8741,-1134 365.5023,-1134 365.5023,-1170"/>
<text text-anchor="middle" x="314.6882" y="-1148.7" font-family="Courier,monospace" font-size="11.00" fill="#000000">BaseProtected</text>
</g>
<!-- \\WDGWV\\CMS\\Emulation\\Blogger -->
<g id="node23" class="node">
<title>\\WDGWV\\CMS\\Emulation\\Blogger</title>
<polygon fill="none" stroke="#000000" points="345.8961,-1091 283.4803,-1091 283.4803,-1055 345.8961,-1055 345.8961,-1091"/>
<text text-anchor="middle" x="314.6882" y="-1069.7" font-family="Courier,monospace" font-size="11.00" fill="#000000">Blogger</text>
</g>
<!-- \\WDGWV\\CMS\\Emulation\\WordPress -->
<g id="node24" class="node">
<title>\\WDGWV\\CMS\\Emulation\\WordPress</title>
<polygon fill="none" stroke="#000000" points="352.599,-1037 276.7774,-1037 276.7774,-1001 352.599,-1001 352.599,-1037"/>
<text text-anchor="middle" x="314.6882" y="-1015.7" font-family="Courier,monospace" font-size="11.00" fill="#000000">WordPress</text>
</g>
<!-- \\WDGWV\\CMS\\Emulation\\WP_Widget -->
<g id="node25" class="node">
<title>\\WDGWV\\CMS\\Emulation\\WP_Widget</title>
<polygon fill="none" stroke="#000000" points="352.599,-983 276.7774,-983 276.7774,-947 352.599,-947 352.599,-983"/>
<text text-anchor="middle" x="314.6882" y="-961.7" font-family="Courier,monospace" font-size="11.00" fill="#000000">WP_Widget</text>
</g>
<!-- \\WDGWV\\CMS\\Emulation\\WP_Query -->
<g id="node26" class="node">
<title>\\WDGWV\\CMS\\Emulation\\WP_Query</title>
<polygon fill="none" stroke="#000000" points="348.9971,-929 280.3793,-929 280.3793,-893 348.9971,-893 348.9971,-929"/>
<text text-anchor="middle" x="314.6882" y="-907.7" font-family="Courier,monospace" font-size="11.00" fill="#000000">WP_Query</text>
</g>
<!-- \\WDGWV\\CMS\\Config -->
<g id="node27" class="node">
<title>\\WDGWV\\CMS\\Config</title>
<polygon fill="none" stroke="#000000" points="342.296,-605 287.0804,-605 287.0804,-569 342.296,-569 342.296,-605"/>
<text text-anchor="middle" x="314.6882" y="-583.7" font-family="Courier,monospace" font-size="11.00" fill="#000000">Config</text>
</g>
<!-- \\WDGWV\\General\\WDGWV -->
<g id="node36" class="node">
<title>\\WDGWV\\General\\WDGWV</title>
<polygon fill="none" stroke="#000000" points="109.907,-499 55.907,-499 55.907,-463 109.907,-463 109.907,-499"/>
<text text-anchor="middle" x="82.907" y="-477.7" font-family="Courier,monospace" font-size="11.00" fill="#000000">WDGWV</text>
</g>
<!-- \\WDGWV\\CMS\\Config&#45;&gt;\\WDGWV\\General\\WDGWV -->
<g id="edge2" class="edge">
<title>\\WDGWV\\CMS\\Config&#45;&gt;\\WDGWV\\General\\WDGWV</title>
<path fill="none" stroke="#000000" d="M286.7786,-581.1461C265.1888,-576.1193 234.8194,-567.949 209.5737,-557 176.5307,-542.6693 141.6207,-521.1892 116.8368,-504.7169"/>
<polygon fill="none" stroke="#000000" points="118.7638,-501.795 108.5124,-499.1193 114.8577,-507.6039 118.7638,-501.795"/>
</g>
<!-- \\WDGWV\\CMS\\Installer -->
<g id="node28" class="node">
<title>\\WDGWV\\CMS\\Installer</title>
<polygon fill="none" stroke="#000000" points="352.599,-821 276.7774,-821 276.7774,-785 352.599,-785 352.599,-821"/>
<text text-anchor="middle" x="314.6882" y="-799.7" font-family="Courier,monospace" font-size="11.00" fill="#000000">Installer</text>
</g>
<!-- \\WDGWV\\CMS\\Debugger -->
<g id="node29" class="node">
<title>\\WDGWV\\CMS\\Debugger</title>
<polygon fill="none" stroke="#000000" points="348.9971,-767 280.3793,-767 280.3793,-731 348.9971,-731 348.9971,-767"/>
<text text-anchor="middle" x="314.6882" y="-745.7" font-family="Courier,monospace" font-size="11.00" fill="#000000">Debugger</text>
</g>
<!-- \\WDGWV\\CMS\\BaseProtected -->
<g id="node30" class="node">
<title>\\WDGWV\\CMS\\BaseProtected</title>
<polygon fill="none" stroke="#000000" points="133.7211,-875 32.0928,-875 32.0928,-839 133.7211,-839 133.7211,-875"/>
<text text-anchor="middle" x="82.907" y="-853.7" font-family="Courier,monospace" font-size="11.00" fill="#000000">BaseProtected</text>
</g>
<!-- \\WDGWV\\CMS\\Extensions -->
<g id="node31" class="node">
<title>\\WDGWV\\CMS\\Extensions</title>
<polygon fill="none" stroke="#000000" points="355.6989,-713 273.6775,-713 273.6775,-677 355.6989,-677 355.6989,-713"/>
<text text-anchor="middle" x="314.6882" y="-691.7" font-family="Courier,monospace" font-size="11.00" fill="#000000">Extensions</text>
</g>
<!-- \\WDGWV\\CMS\\Hooks -->
<g id="node32" class="node">
<title>\\WDGWV\\CMS\\Hooks</title>
<polygon fill="none" stroke="#000000" points="341.6882,-875 287.6882,-875 287.6882,-839 341.6882,-839 341.6882,-875"/>
<text text-anchor="middle" x="314.6882" y="-853.7" font-family="Courier,monospace" font-size="11.00" fill="#000000">Hooks</text>
</g>
<!-- \\WDGWV\\CMS\\Hooks&#45;&gt;\\WDGWV\\CMS\\BaseProtected -->
<g id="edge15" class="edge">
<title>\\WDGWV\\CMS\\Hooks&#45;&gt;\\WDGWV\\CMS\\BaseProtected</title>
<path fill="none" stroke="#000000" d="M287.6463,-857C252.6015,-857 190.467,-857 143.8105,-857"/>
<polygon fill="none" stroke="#000000" points="143.8071,-853.5001 133.8071,-857 143.807,-860.5001 143.8071,-853.5001"/>
</g>
<!-- \\WDGWV\\CMS\\Base -->
<g id="node34" class="node">
<title>\\WDGWV\\CMS\\Base</title>
<polygon fill="none" stroke="#000000" points="341.6882,-659 287.6882,-659 287.6882,-623 341.6882,-623 341.6882,-659"/>
<text text-anchor="middle" x="314.6882" y="-637.7" font-family="Courier,monospace" font-size="11.00" fill="#000000">Base</text>
</g>
<!-- \\WDGWV\\CMS\\Base&#45;&gt;\\WDGWV\\General\\WDGWV -->
<g id="edge22" class="edge">
<title>\\WDGWV\\CMS\\Base&#45;&gt;\\WDGWV\\General\\WDGWV</title>
<path fill="none" stroke="#000000" d="M287.6391,-638.2382C265.4234,-635.0226 233.7873,-628.2069 209.5737,-614 185.1948,-599.6961 133.8333,-541.4178 104.5537,-506.9322"/>
<polygon fill="none" stroke="#000000" points="107.0903,-504.5113 97.9627,-499.1318 101.7434,-509.0292 107.0903,-504.5113"/>
</g>
<!-- \\WDGWV\\General\\SQL -->
<g id="node35" class="node">
<title>\\WDGWV\\General\\SQL</title>
<polygon fill="none" stroke="#000000" points="341.6882,-526 287.6882,-526 287.6882,-490 341.6882,-490 341.6882,-526"/>
<text text-anchor="middle" x="314.6882" y="-504.7" font-family="Courier,monospace" font-size="11.00" fill="#000000">SQL</text>
</g>
<!-- \\WDGWV\\General\\TemplateParser -->
<g id="node37" class="node">
<title>\\WDGWV\\General\\TemplateParser</title>
<polygon fill="none" stroke="#000000" points="369.104,-472 260.2724,-472 260.2724,-436 369.104,-436 369.104,-472"/>
<text text-anchor="middle" x="314.6882" y="-450.7" font-family="Courier,monospace" font-size="11.00" fill="#000000">TemplateParser</text>
</g>
<!-- \\WDGWV\\General\\TemplateParser&#45;&gt;\\WDGWV\\General\\WDGWV -->
<g id="edge21" class="edge">
<title>\\WDGWV\\General\\TemplateParser&#45;&gt;\\WDGWV\\General\\WDGWV</title>
<path fill="none" stroke="#000000" d="M260.3458,-460.3303C217.1721,-465.3596 157.9439,-472.259 120.0431,-476.674"/>
<polygon fill="none" stroke="#000000" points="119.4776,-473.2162 109.9497,-477.8498 120.2876,-480.1691 119.4776,-473.2162"/>
</g>
<!-- \\WDGWV\\General\\WDGWVFramework -->
<g id="node38" class="node">
<title>\\WDGWV\\General\\WDGWVFramework</title>
<polygon fill="none" stroke="#000000" points="369.104,-418 260.2724,-418 260.2724,-382 369.104,-382 369.104,-418"/>
<text text-anchor="middle" x="314.6882" y="-396.7" font-family="Courier,monospace" font-size="11.00" fill="#000000">WDGWVFramework</text>
</g>
<!-- \\WDGWV\\General\\WDGWVFramework&#45;&gt;\\WDGWV\\General\\WDGWV -->
<g id="edge23" class="edge">
<title>\\WDGWV\\General\\WDGWVFramework&#45;&gt;\\WDGWV\\General\\WDGWV</title>
<path fill="none" stroke="#000000" d="M260.2115,-412.3228C243.785,-416.4848 225.8097,-421.4894 209.5737,-427 178.4606,-437.56 144.245,-452.3461 119.2263,-463.7766"/>
<polygon fill="none" stroke="#000000" points="117.7299,-460.6124 110.1136,-467.9774 120.6604,-466.9695 117.7299,-460.6124"/>
</g>
<!-- TestCase -->
<g id="node40" class="node">
<title>TestCase</title>
<ellipse fill="none" stroke="#000000" cx="82.907" cy="-286" rx="41.8108" ry="18"/>
<text text-anchor="middle" x="82.907" y="-281.8" font-family="Times,serif" font-size="14.00" fill="#c0c0c0">TestCase</text>
</g>
<!-- \\Test -->
<g id="node41" class="node">
<title>\\Test</title>
<polygon fill="none" stroke="#000000" points="341.6882,-358 287.6882,-358 287.6882,-322 341.6882,-322 341.6882,-358"/>
<text text-anchor="middle" x="314.6882" y="-336.7" font-family="Courier,monospace" font-size="11.00" fill="#000000">Test</text>
</g>
<!-- \\Test&#45;&gt;TestCase -->
<g id="edge12" class="edge">
<title>\\Test&#45;&gt;TestCase</title>
<path fill="none" stroke="#000000" d="M287.6463,-333.6998C249.0414,-324.7057 177.5633,-308.0529 130.1153,-296.9985"/>
<polygon fill="none" stroke="#000000" points="130.6147,-293.5212 120.0813,-294.6608 129.0263,-300.3386 130.6147,-293.5212"/>
</g>
<!-- \\WP_Widget -->
<g id="node42" class="node">
<title>\\WP_Widget</title>
<polygon fill="none" stroke="#000000" points="120.8178,-220 44.9962,-220 44.9962,-184 120.8178,-184 120.8178,-220"/>
<text text-anchor="middle" x="82.907" y="-198.7" font-family="Courier,monospace" font-size="11.00" fill="#000000">WP_Widget</text>
</g>
<!-- \\WP_Query -->
<g id="node43" class="node">
<title>\\WP_Query</title>
<polygon fill="none" stroke="#000000" points="348.9971,-304 280.3793,-304 280.3793,-268 348.9971,-268 348.9971,-304"/>
<text text-anchor="middle" x="314.6882" y="-282.7" font-family="Courier,monospace" font-size="11.00" fill="#000000">WP_Query</text>
</g>
<!-- \\VMenuWidget -->
<g id="node44" class="node">
<title>\\VMenuWidget</title>
<polygon fill="none" stroke="#000000" points="358.8009,-250 270.5755,-250 270.5755,-214 358.8009,-214 358.8009,-250"/>
<text text-anchor="middle" x="314.6882" y="-228.7" font-family="Courier,monospace" font-size="11.00" fill="#000000">VMenuWidget</text>
</g>
<!-- \\VMenuWidget&#45;&gt;\\WP_Widget -->
<g id="edge18" class="edge">
<title>\\VMenuWidget&#45;&gt;\\WP_Widget</title>
<path fill="none" stroke="#000000" d="M270.5464,-226.2866C230.5884,-221.1148 171.8692,-213.5146 130.7908,-208.1977"/>
<polygon fill="none" stroke="#000000" points="131.116,-204.7107 120.7494,-206.898 130.2174,-211.6528 131.116,-204.7107"/>
</g>
<!-- \\LoginWidget -->
<g id="node45" class="node">
<title>\\LoginWidget</title>
<polygon fill="none" stroke="#000000" points="358.8009,-196 270.5755,-196 270.5755,-160 358.8009,-160 358.8009,-196"/>
<text text-anchor="middle" x="314.6882" y="-174.7" font-family="Courier,monospace" font-size="11.00" fill="#000000">LoginWidget</text>
</g>
<!-- \\LoginWidget&#45;&gt;\\WP_Widget -->
<g id="edge19" class="edge">
<title>\\LoginWidget&#45;&gt;\\WP_Widget</title>
<path fill="none" stroke="#000000" d="M270.5464,-182.5707C230.5884,-186.7082 171.8692,-192.7883 130.7908,-197.0418"/>
<polygon fill="none" stroke="#000000" points="130.3357,-193.5701 120.7494,-198.0816 131.0567,-200.5329 130.3357,-193.5701"/>
</g>
<!-- \\theme_MenuItem -->
<g id="node46" class="node">
<title>\\theme_MenuItem</title>
<polygon fill="none" stroke="#000000" points="369.104,-142 260.2724,-142 260.2724,-106 369.104,-106 369.104,-142"/>
<text text-anchor="middle" x="314.6882" y="-120.7" font-family="Courier,monospace" font-size="11.00" fill="#000000">theme_MenuItem</text>
</g>
<!-- \\theme_MenuWalker -->
<g id="node47" class="node">
<title>\\theme_MenuWalker</title>
<polygon fill="none" stroke="#000000" points="375.306,-88 254.0704,-88 254.0704,-52 375.306,-52 375.306,-88"/>
<text text-anchor="middle" x="314.6882" y="-66.7" font-family="Courier,monospace" font-size="11.00" fill="#000000">theme_MenuWalker</text>
</g>
</g>
</svg>
